<svg width="26" height="37" viewBox="0 0 26 37" fill="none" xmlns="http://www.w3.org/2000/svg">
<path d="M22.9981 36.9989C10.3742 36.9989 0.159145 26.7651 0.159145 14.16C0.159145 13.6061 0.542845 13.1316 1.07482 13.0089L6.1939 11.8277C6.46381 11.7654 6.74703 11.7999 6.99406 11.9253C7.24109 12.0506 7.43621 12.2588 7.54533 12.5134L9.90794 18.0261C10.0089 18.2616 10.0305 18.5235 9.96957 18.7723C9.90864 19.0212 9.76846 19.2435 9.57017 19.4057L6.58659 21.8469C8.39501 25.7015 11.537 28.8008 15.3111 30.5714L17.7523 27.5878C17.9145 27.3895 18.1368 27.2493 18.3857 27.1884C18.6345 27.1274 18.8965 27.1491 19.132 27.25L24.6447 29.6126C24.8993 29.7218 25.1075 29.9169 25.2328 30.1639C25.3581 30.4109 25.3927 30.6942 25.3304 30.9641L24.1492 36.0832C24.0891 36.3435 23.9426 36.5757 23.7335 36.742C23.5245 36.9083 23.2652 36.9989 22.9981 36.9989ZM10.2793 9.72017C11.8287 10.1194 13.0418 11.3325 13.441 12.8819C13.5744 13.3991 13.1908 13.9057 12.6568 13.917L12.0881 13.9291C11.7159 13.937 11.3875 13.6944 11.2779 13.3387C11.1721 12.996 10.9842 12.6843 10.7306 12.4307C10.4769 12.177 10.1652 11.9892 9.82255 11.8833C9.46675 11.7737 9.22418 11.4453 9.2321 11.0731L9.24421 10.5044C9.25548 9.97042 9.76209 9.58686 10.2793 9.72017ZM10.3085 0.82757C16.7113 1.38473 21.7769 6.45501 22.3336 12.8527C22.3751 13.329 22.0039 13.7409 21.5259 13.751L20.974 13.7628C20.54 13.7719 20.1719 13.4443 20.1328 13.0119C19.6541 7.70355 15.4532 3.50671 10.1492 3.02834C9.71684 2.98931 9.38918 2.62122 9.39841 2.18712L9.41013 1.63526C9.42028 1.15728 9.83217 0.786114 10.3085 0.82757ZM10.2584 5.24597C14.2617 5.7452 17.4151 8.893 17.9152 12.9028C17.976 13.3903 17.6019 13.8236 17.1108 13.834L16.5569 13.8456C16.138 13.8544 15.7747 13.5493 15.7202 13.1338C15.33 10.1643 12.9967 7.83118 10.0274 7.44101C9.61192 7.38643 9.30685 7.02324 9.3156 6.60431L9.32721 6.05041C9.33752 5.55925 9.77089 5.18518 10.2584 5.24597Z" fill="white"/>
</svg>
