<svg width="35" height="28" viewBox="0 0 35 28" fill="none" xmlns="http://www.w3.org/2000/svg">
<path d="M31.8486 0.947021H3.4278C1.85216 0.947021 0.578613 2.22057 0.578613 3.79028V24.6409C0.578613 26.2106 1.85216 27.4841 3.4278 27.4841H31.8486C33.4242 27.4841 34.6978 26.2106 34.6978 24.6409V3.79028C34.6978 2.22057 33.4242 0.947021 31.8486 0.947021ZM3.78321 3.79028H31.4932C31.6886 3.79028 31.8486 3.95022 31.8486 4.14569V6.63354H3.4278V4.14569C3.4278 3.95022 3.58773 3.79028 3.78321 3.79028ZM31.4932 24.6409H3.78321C3.58773 24.6409 3.4278 24.4809 3.4278 24.2855V14.2156H31.8486V24.2855C31.8486 24.4809 31.6886 24.6409 31.4932 24.6409ZM11.9517 18.7174V21.0868C11.9517 21.4777 11.6318 21.7976 11.2408 21.7976H6.97595C6.585 21.7976 6.26514 21.4777 6.26514 21.0868V18.7174C6.26514 18.3265 6.585 18.0066 6.97595 18.0066H11.2408C11.6318 18.0066 11.9517 18.3265 11.9517 18.7174ZM23.3247 18.7174V21.0868C23.3247 21.4777 23.0048 21.7976 22.6139 21.7976H14.558C14.167 21.7976 13.8472 21.4777 13.8472 21.0868V18.7174C13.8472 18.3265 14.167 18.0066 14.558 18.0066H22.6139C23.0048 18.0066 23.3247 18.3265 23.3247 18.7174Z" fill="#FF7900"/>
</svg>
