<svg width="29" height="29" viewBox="0 0 29 29" fill="none" xmlns="http://www.w3.org/2000/svg">
<path d="M25.7325 28.1194H3.88368C2.23819 28.1194 0.904297 26.7855 0.904297 25.14V3.29116C0.904297 1.64566 2.23819 0.311768 3.88368 0.311768H25.7325C27.378 0.311768 28.7119 1.64566 28.7119 3.29116V25.14C28.7119 26.7855 27.378 28.1194 25.7325 28.1194ZM13.0275 22.0328L24.4485 10.6118C24.8364 10.224 24.8364 9.59517 24.4485 9.20735L23.0441 7.80288C22.6562 7.41506 22.0274 7.415 21.6395 7.80288L12.3253 17.1171L7.97668 12.7685C7.58886 12.3806 6.96003 12.3806 6.57215 12.7685L5.16768 14.1729C4.77986 14.5608 4.77986 15.1896 5.16768 15.5774L11.623 22.0327C12.0109 22.4207 12.6397 22.4207 13.0275 22.0328Z" fill="#FF7900"/>
</svg>
