<svg width="36" height="36" viewBox="0 0 36 36" fill="none" xmlns="http://www.w3.org/2000/svg">
<path d="M13.6548 14.9823C13.6548 13.792 12.6895 12.8267 11.4992 12.8267H10.4214C8.04011 12.8267 6.11018 14.7566 6.11018 17.1379V20.3713C6.11018 22.7526 8.04011 24.6825 10.4214 24.6825H11.4992C12.6895 24.6825 13.6548 23.7172 13.6548 22.5269V14.9823ZM25.5105 24.6825C27.8918 24.6825 29.8217 22.7526 29.8217 20.3713V17.1379C29.8217 14.7566 27.8918 12.8267 25.5105 12.8267H24.4327C23.2424 12.8267 22.2771 13.792 22.2771 14.9823V22.5269C22.2771 23.7172 23.2424 24.6825 24.4327 24.6825H25.5105ZM17.9659 0.970947C8.34526 0.970947 1.02971 8.97561 0.721191 18.2157V19.2935C0.721191 19.889 1.20351 20.3713 1.79899 20.3713H2.87679C3.47227 20.3713 3.95458 19.889 3.95458 19.2935V18.2157C3.95458 10.4899 10.2402 4.20434 17.9659 4.20434C25.6917 4.20434 31.9773 10.4899 31.9773 18.2157H31.9692C31.9746 18.3794 31.9773 29.379 31.9773 29.379C31.9773 30.9519 30.7021 32.2271 29.1292 32.2271H22.2771C22.2771 30.4413 20.8295 28.9937 19.0437 28.9937H16.8881C15.1024 28.9937 13.6548 30.4413 13.6548 32.2271C13.6548 34.0128 15.1024 35.4604 16.8881 35.4604H29.1292C32.4879 35.4604 35.2107 32.7377 35.2107 29.379V18.2157C34.9022 8.97561 27.5866 0.970947 17.9659 0.970947Z" fill="#FF7900"/>
</svg>
