<svg width="34" height="27" viewBox="0 0 34 27" fill="none" xmlns="http://www.w3.org/2000/svg">
<path d="M32.3542 18.1556H31.5308V12.5929C31.5308 11.9394 31.2684 11.3116 30.8053 10.8485L25.6646 5.7078C25.2014 5.24468 24.5737 4.98224 23.9201 4.98224H21.6508V2.51224C21.6508 1.14859 20.5445 0.0422363 19.1808 0.0422363H6.00748C4.64383 0.0422363 3.53748 1.14859 3.53748 2.51224V4.98224H0.655807C0.429391 4.98224 0.244141 5.16749 0.244141 5.39391V6.21724C0.244141 6.44366 0.429391 6.62891 0.655807 6.62891H14.6525C14.8789 6.62891 15.0641 6.81416 15.0641 7.04057V7.86391C15.0641 8.09032 14.8789 8.27557 14.6525 8.27557H2.30247C2.07606 8.27557 1.89081 8.46082 1.89081 8.68724V9.51057C1.89081 9.73699 2.07606 9.92224 2.30247 9.92224H13.0058C13.2322 9.92224 13.4175 10.1075 13.4175 10.3339V11.1572C13.4175 11.3837 13.2322 11.5689 13.0058 11.5689H0.655807C0.429391 11.5689 0.244141 11.7542 0.244141 11.9806V12.8039C0.244141 13.0303 0.429391 13.2156 0.655807 13.2156H11.3591C11.5856 13.2156 11.7708 13.4008 11.7708 13.6272V14.4506C11.7708 14.677 11.5856 14.8622 11.3591 14.8622H3.53748V21.4489C3.53748 24.1762 5.75019 26.3889 8.47748 26.3889C11.2048 26.3889 13.4175 24.1762 13.4175 21.4489H20.0042C20.0042 24.1762 22.2169 26.3889 24.9442 26.3889C27.6714 26.3889 29.8842 24.1762 29.8842 21.4489H32.3542C32.807 21.4489 33.1775 21.0784 33.1775 20.6256V18.9789C33.1775 18.5261 32.807 18.1556 32.3542 18.1556ZM8.47748 23.9189C7.11383 23.9189 6.00748 22.8126 6.00748 21.4489C6.00748 20.0853 7.11383 18.9789 8.47748 18.9789C9.84112 18.9789 10.9475 20.0853 10.9475 21.4489C10.9475 22.8126 9.84112 23.9189 8.47748 23.9189ZM24.9442 23.9189C23.5805 23.9189 22.4742 22.8126 22.4742 21.4489C22.4742 20.0853 23.5805 18.9789 24.9442 18.9789C26.3078 18.9789 27.4142 20.0853 27.4142 21.4489C27.4142 22.8126 26.3078 23.9189 24.9442 23.9189ZM29.0608 13.2156H21.6508V7.45224H23.9201L29.0608 12.5929V13.2156Z" fill="#FF7900"/>
</svg>
